<svg width="260px" height="130px" viewBox="0 0 260 130" version="1.1" xmlns="http://www.w3.org/2000/svg" xmlns:xlink="http://www.w3.org/1999/xlink">
  <g stroke="none" stroke-width="1" fill="none" fill-rule="evenodd">
    <rect class="backdrop" fill-opacity="0.6" fill="#000000" x="0" y="0" width="260" height="130"></rect>
    <g class="elefant" transform="translate(29.000000, 22.000000)">
      <path class="outline" fill="#EBEBEA" d="M33.6032166,44.3028947 C31.6782203,47.0808044 28.8029466,48.4827554 24.5586867,48.0917593 C12.5843568,46.988642 5.15531157,39.7695504 5.15531151,26.4795997 C5.94305182,18.2359881 9.18155184,12.9095847 14.7257954,9.74044934 C19.3613101,7.09075082 25.3844007,5.94062117 34.1739781,5.60954058 C56.5551427,4.76650012 63.6059376,14.3370863 62.9489711,37.0920788 C62.2477195,61.3809519 61.5274157,67.3786641 59.4201936,72.7266188 C58.7008472,74.5522601 57.4582804,76.3106688 55.1803751,77.9081352 C51.622029,80.4035585 46.3568573,81.7580876 38.958668,81.4508126 C34.7130434,81.1175835 32.9018856,79.2490106 32.3000587,75.7500163 C32.081174,74.4774307 32.0465274,73.3090902 32.0985394,71.2381396 C32.1186934,70.4356721 32.1222182,70.2657506 32.1222181,69.9370471 C32.122217,66.4333629 35.7103437,62.5138866 40.1486895,62.8484743 C44.2140599,63.154945 45.9292546,65.8450377 45.9292497,69.1749738 L45.929246,71.6749738 L50.929246,71.6749812 L50.9292497,69.1749812 C50.929258,63.5227654 47.6635067,58.4007965 40.5245514,57.8626215 C32.9819829,57.2940199 27.1222161,63.6949135 27.1222181,69.9370487 C27.1222181,70.2048722 27.1189196,70.3638863 27.1001156,71.112604 C27.0403157,73.4936434 27.0823509,74.9111387 27.3724171,76.5975705 C28.3424759,82.2374489 31.9056331,85.9135607 38.6602761,86.44107 C47.1946921,86.7971969 53.5415572,85.1643891 58.0512228,82.0018173 C61.2167763,79.7818544 63.0197251,77.2304257 64.0721015,74.5595818 C66.4593133,68.5010362 67.2293558,62.089168 67.9468886,37.2363752 C68.2886972,25.3973347 66.6868905,16.9479669 62.1500045,10.7897026 C56.7929584,3.51817194 47.6189824,0.0995562891 33.9857745,0.613083891 C24.4554444,0.972066719 17.7502456,2.25244726 12.2445127,5.39956967 C5.2426763,9.4018772 1.11334813,16.1934373 0.166333699,26.2451014 C0.155311583,42.4927897 9.67312815,51.7416215 24.1000114,53.0706765 C30.1736071,53.6301975 34.7789585,51.3846801 37.7129115,47.1507724 C39.8039204,44.1332943 40.8823941,40.2344622 40.8823941,37.1642266 L40.8823941,34.6642266 L35.8823941,34.6642266 L35.8823941,37.1642266 C35.8823941,39.2676242 35.0784354,42.1740465 33.6032166,44.3028947 Z"></path>
      <path class="eye" fill="#F6A623" d="M50.392926,39.1263158 C52.9905527,39.1263158 53.7525111,37.6437427 53.7525111,34.9578947 C53.7525111,32.2720468 54.3343867,30.0947368 51.73676,30.0947368 C49.1391334,30.0947368 49.721009,31.57731 49.721009,34.2631579 C49.721009,36.9490058 47.7952994,39.1263158 50.392926,39.1263158 Z"></path>
    </g>
    <g class="letters" transform="translate(111.000000, 23.000000)" fill="#EBEBEA">
      <path class="ELE" d="M0,48.7915843 L0,0.317752161 L33.0933624,0.317752161 L33.0933624,9.20800171 L9.36349477,9.20800171 L9.36349477,19.382774 L23.3242289,19.382774 L23.3242289,28.2392203 L9.36349477,28.2392203 L9.36349477,39.935138 L34.5469013,39.935138 L34.5469013,48.7915843 L0,48.7915843 Z M44.5864607,48.7915843 L44.5864607,0.317752161 L53.9499554,0.317752161 L53.9499554,39.7999251 L77.3417907,39.7999251 L77.3417907,48.7915843 L44.5864607,48.7915843 Z M84.6094852,48.7915843 L84.6094852,0.317752161 L117.702848,0.317752161 L117.702848,9.20800171 L93.97298,9.20800171 L93.97298,19.382774 L107.933714,19.382774 L107.933714,28.2392203 L93.97298,28.2392203 L93.97298,39.935138 L119.156387,39.935138 L119.156387,48.7915843 L84.6094852,48.7915843 Z"></path>
      <path class="FANT" d="M0,84.9649088 L0,52.4299065 L21.8034429,52.4299065 L21.8034429,58.3969258 L6.28465524,58.3969258 L6.28465524,65.2260999 L16.1313714,65.2260999 L16.1313714,71.1704308 L6.28465524,71.1704308 L6.28465524,84.9649088 L0,84.9649088 Z M49.4604637,84.9649088 L46.9420639,78.2264878 L34.3954417,78.2264878 L31.8997302,84.9649088 L25.1613093,84.9649088 L37.6171783,52.4299065 L43.7430156,52.4299065 L56.1988846,84.9649088 L49.4604637,84.9649088 Z M41.7010698,64.046309 C41.5346882,63.6530434 41.3569651,63.1841569 41.1678951,62.6396353 C40.9788251,62.0951137 40.8162273,61.5884137 40.6800969,61.1195201 C40.5590921,61.5884137 40.4002757,62.0951137 40.2036429,62.6396353 C40.0070101,63.1841569 39.8255057,63.6530434 39.6591241,64.046309 L36.4373874,72.5090397 L44.9001182,72.5090397 L41.7010698,64.046309 Z M82.4492316,84.9649088 L69.5395968,65.9975016 C69.3278384,65.679864 69.0971765,65.2903857 68.8476041,64.8290549 C68.5980317,64.3677241 68.3824952,63.9404323 68.200988,63.5471667 C68.2463648,63.8950555 68.2803969,64.3034406 68.3030853,64.7723342 C68.3257737,65.2412278 68.3371177,65.6496128 68.3371177,65.9975016 L68.3371177,84.9649088 L62.097839,84.9649088 L62.097839,52.4299065 L67.9967934,52.4299065 L80.5887922,71.1704308 C80.785425,71.4729428 81.0123056,71.8510772 81.2694407,72.3048452 C81.5265759,72.7586131 81.7534565,73.197249 81.9500893,73.6207657 C81.9047125,73.1821234 81.8706804,72.7397062 81.847992,72.293501 C81.8253036,71.8472958 81.8139596,71.4729428 81.8139596,71.1704308 L81.8139596,52.4299065 L88.03055,52.4299065 L88.03055,84.9649088 L82.4492316,84.9649088 Z M109.856681,58.4876789 L109.856681,84.9649088 L103.594714,84.9649088 L103.594714,58.4876789 L94.292517,58.4876789 L94.292517,52.4299065 L119.158879,52.4299065 L119.158879,58.4876789 L109.856681,58.4876789 Z"></path>
    </g>
  </g>
</svg>