<svg width="260px" height="130px" viewBox="0 0 260 130" version="1.1" xmlns="http://www.w3.org/2000/svg" xmlns:xlink="http://www.w3.org/1999/xlink">
  <g stroke="none" stroke-width="1" fill="none" fill-rule="evenodd">
    <rect class="backdrop" fill-opacity="0.6" fill="#000000" x="0" y="0" width="260" height="130"></rect>
    <g id="elefant" transform="translate(29.000000, 22.000000)">
      <path class="outline" fill="#EBEBEA" d="M33.6041998,44.3098053 C31.6787778,47.0883294 28.8028681,48.4905905 24.5576695,48.0995079 C12.5806912,46.9961467 5.15000296,39.7754585 5.1500029,26.4825684 C5.93791743,18.2371335 9.17713371,12.9095522 14.7226035,9.73971584 C19.3591435,7.08943129 25.3835662,5.93904727 34.1750875,5.60789345 C56.5612022,4.76466654 63.6135565,14.3373695 62.9564447,37.0973946 C62.255038,61.3916397 61.5345748,67.3906784 59.4268867,72.7398159 C58.7073813,74.565861 57.4645396,76.3246586 55.1861305,77.9224783 C51.6269974,80.4184536 46.3606612,81.7732822 38.9608357,81.4659392 C34.7142721,81.1326365 32.9027137,79.2636503 32.3007537,75.7638821 C32.0818206,74.4910151 32.0471663,73.3224162 32.0991898,71.2510075 C32.1193483,70.4483625 32.1228738,70.2784034 32.1228737,69.9496273 C32.1228726,66.4451682 35.7117929,62.524825 40.1511204,62.8594867 C44.2173899,63.1660252 45.9329639,65.8567128 45.932959,69.1873854 C45.932959,69.1873854 45.932959,70.7139607 45.9329553,71.6879384 C45.932959,72.9937784 50.9340649,72.9937784 50.9340612,71.6879457 C50.9340649,71.2510075 50.9340649,69.1873928 50.9340649,69.1873928 C50.9340732,63.5339269 47.6675996,58.4108252 40.5270654,57.8725312 C32.9828287,57.3038038 27.1217659,63.7061131 27.1217679,69.9496289 C27.1217679,70.2175116 27.1184687,70.3765609 27.0996605,71.1254442 C27.0398474,73.5070102 27.0818919,74.924819 27.3720222,76.6116238 C28.3422956,82.2527495 31.9062409,85.9296744 38.6623777,86.4573004 C47.1986813,86.813506 53.5469501,85.1803371 58.0576132,82.0170658 C61.2238668,79.796612 63.0272143,77.2446189 64.0798234,74.5731843 C66.4675633,68.5132988 67.2377761,62.1000125 67.9554675,37.241723 C68.2973518,25.400064 66.6951908,16.9488275 62.1573014,10.7892012 C56.7990705,3.51606226 47.6230655,0.0966905174 33.9868423,0.610331696 C24.4544044,0.96939392 17.7477226,2.25005764 12.240772,5.3978761 C5.23738701,9.40106882 1.10714555,16.194131 0.159921674,26.2480183 C0.14889712,42.4993 9.66881874,51.7501774 24.0988927,53.0795264 C30.1738318,53.6391711 34.7802018,51.3931571 37.7148036,47.158313 C39.8062751,44.1401675 40.8849873,40.2404731 40.8849873,37.1695584 C40.8849873,37.1695584 40.8849873,35.5952521 40.8849873,34.6690055 C40.8849873,33.1660753 35.8838814,33.1219295 35.8838814,34.6690055 L35.8838814,37.1695584 C35.8838814,39.2734212 35.0797449,42.1804863 33.6041998,44.3098053 Z"></path>
      <path class="eye" fill="#F6A623" d="M50.392926,39.1263158 C52.9905527,39.1263158 53.7525111,37.6437427 53.7525111,34.9578947 C53.7525111,32.2720468 54.3343867,30.0947368 51.73676,30.0947368 C49.1391334,30.0947368 49.721009,31.57731 49.721009,34.2631579 C49.721009,36.9490058 47.7952994,39.1263158 50.392926,39.1263158 Z"></path>
    </g>
    <g class="letters" transform="translate(111.000000, 23.000000)" fill="#EBEBEA">
      <path class="ELE" d="M0,48.7915843 L0,0.317752161 L33.0933624,0.317752161 L33.0933624,9.20800171 L9.36349477,9.20800171 L9.36349477,19.382774 L23.3242289,19.382774 L23.3242289,28.2392203 L9.36349477,28.2392203 L9.36349477,39.935138 L34.5469013,39.935138 L34.5469013,48.7915843 L0,48.7915843 Z M44.5864607,48.7915843 L44.5864607,0.317752161 L53.9499554,0.317752161 L53.9499554,39.7999251 L77.3417907,39.7999251 L77.3417907,48.7915843 L44.5864607,48.7915843 Z M84.6094852,48.7915843 L84.6094852,0.317752161 L117.702848,0.317752161 L117.702848,9.20800171 L93.97298,9.20800171 L93.97298,19.382774 L107.933714,19.382774 L107.933714,28.2392203 L93.97298,28.2392203 L93.97298,39.935138 L119.156387,39.935138 L119.156387,48.7915843 L84.6094852,48.7915843 Z"></path>
      <path class="FANT" d="M0,84.9649088 L0,52.4299065 L21.8034429,52.4299065 L21.8034429,58.3969258 L6.28465524,58.3969258 L6.28465524,65.2260999 L16.1313714,65.2260999 L16.1313714,71.1704308 L6.28465524,71.1704308 L6.28465524,84.9649088 L0,84.9649088 Z M49.4604637,84.9649088 L46.9420639,78.2264878 L34.3954417,78.2264878 L31.8997302,84.9649088 L25.1613093,84.9649088 L37.6171783,52.4299065 L43.7430156,52.4299065 L56.1988846,84.9649088 L49.4604637,84.9649088 Z M41.7010698,64.046309 C41.5346882,63.6530434 41.3569651,63.1841569 41.1678951,62.6396353 C40.9788251,62.0951137 40.8162273,61.5884137 40.6800969,61.1195201 C40.5590921,61.5884137 40.4002757,62.0951137 40.2036429,62.6396353 C40.0070101,63.1841569 39.8255057,63.6530434 39.6591241,64.046309 L36.4373874,72.5090397 L44.9001182,72.5090397 L41.7010698,64.046309 Z M82.4492316,84.9649088 L69.5395968,65.9975016 C69.3278384,65.679864 69.0971765,65.2903857 68.8476041,64.8290549 C68.5980317,64.3677241 68.3824952,63.9404323 68.200988,63.5471667 C68.2463648,63.8950555 68.2803969,64.3034406 68.3030853,64.7723342 C68.3257737,65.2412278 68.3371177,65.6496128 68.3371177,65.9975016 L68.3371177,84.9649088 L62.097839,84.9649088 L62.097839,52.4299065 L67.9967934,52.4299065 L80.5887922,71.1704308 C80.785425,71.4729428 81.0123056,71.8510772 81.2694407,72.3048452 C81.5265759,72.7586131 81.7534565,73.197249 81.9500893,73.6207657 C81.9047125,73.1821234 81.8706804,72.7397062 81.847992,72.293501 C81.8253036,71.8472958 81.8139596,71.4729428 81.8139596,71.1704308 L81.8139596,52.4299065 L88.03055,52.4299065 L88.03055,84.9649088 L82.4492316,84.9649088 Z M109.856681,58.4876789 L109.856681,84.9649088 L103.594714,84.9649088 L103.594714,58.4876789 L94.292517,58.4876789 L94.292517,52.4299065 L119.158879,52.4299065 L119.158879,58.4876789 L109.856681,58.4876789 Z"></path>
    </g>
  </g>
</svg>