<svg width="130px" height="130px" viewBox="0 0 130 130" version="1.1" xmlns="http://www.w3.org/2000/svg" xmlns:xlink="http://www.w3.org/1999/xlink">
  <g stroke="none" stroke-width="1" fill="none" fill-rule="evenodd">
    <rect class="backdrop" fill-opacity="0.6" fill="#000000" x="0" y="0" width="130" height="130"></rect>
    <g class="elefant" transform="translate(31.000000, 22.000000)">
      <path class="outline" fill="#EBEBEA" d="M33.6032166,44.3028947 C31.6782203,47.0808044 28.8029466,48.4827554 24.5586867,48.0917593 C12.5843568,46.988642 5.15531157,39.7695504 5.15531151,26.4795997 C5.94305182,18.2359881 9.18155184,12.9095847 14.7257954,9.74044934 C19.3613101,7.09075082 25.3844007,5.94062117 34.1739781,5.60954058 C56.5551427,4.76650012 63.6059376,14.3370863 62.9489711,37.0920788 C62.2477195,61.3809519 61.5274157,67.3786641 59.4201936,72.7266188 C58.7008472,74.5522601 57.4582804,76.3106688 55.1803751,77.9081352 C51.622029,80.4035585 46.3568573,81.7580876 38.958668,81.4508126 C34.7130434,81.1175835 32.9018856,79.2490106 32.3000587,75.7500163 C32.081174,74.4774307 32.0465274,73.3090902 32.0985394,71.2381396 C32.1186934,70.4356721 32.1222182,70.2657506 32.1222181,69.9370471 C32.122217,66.4333629 35.7103437,62.5138866 40.1486895,62.8484743 C44.2140599,63.154945 45.9292546,65.8450377 45.9292497,69.1749738 L45.929246,71.6749738 L50.929246,71.6749812 L50.9292497,69.1749812 C50.929258,63.5227654 47.6635067,58.4007965 40.5245514,57.8626215 C32.9819829,57.2940199 27.1222161,63.6949135 27.1222181,69.9370487 C27.1222181,70.2048722 27.1189196,70.3638863 27.1001156,71.112604 C27.0403157,73.4936434 27.0823509,74.9111387 27.3724171,76.5975705 C28.3424759,82.2374489 31.9056331,85.9135607 38.6602761,86.44107 C47.1946921,86.7971969 53.5415572,85.1643891 58.0512228,82.0018173 C61.2167763,79.7818544 63.0197251,77.2304257 64.0721015,74.5595818 C66.4593133,68.5010362 67.2293558,62.089168 67.9468886,37.2363752 C68.2886972,25.3973347 66.6868905,16.9479669 62.1500045,10.7897026 C56.7929584,3.51817194 47.6189824,0.0995562891 33.9857745,0.613083891 C24.4554444,0.972066719 17.7502456,2.25244726 12.2445127,5.39956967 C5.2426763,9.4018772 1.11334813,16.1934373 0.166333699,26.2451014 C0.155311583,42.4927897 9.67312815,51.7416215 24.1000114,53.0706765 C30.1736071,53.6301975 34.7789585,51.3846801 37.7129115,47.1507724 C39.8039204,44.1332943 40.8823941,40.2344622 40.8823941,37.1642266 L40.8823941,34.6642266 L35.8823941,34.6642266 L35.8823941,37.1642266 C35.8823941,39.2676242 35.0784354,42.1740465 33.6032166,44.3028947 Z"></path>
      <path class="eye" fill="#F6A623" d="M50.392926,39.1263158 C52.9905527,39.1263158 53.7525111,37.6437427 53.7525111,34.9578947 C53.7525111,32.2720468 54.3343867,30.0947368 51.73676,30.0947368 C49.1391334,30.0947368 49.721009,31.57731 49.721009,34.2631579 C49.721009,36.9490058 47.7952994,39.1263158 50.392926,39.1263158 Z"></path>
    </g>
  </g>
</svg>